<?xml version="1.0" encoding="UTF-8"?>
<svg width="600" height="400" viewBox="0 0 600 400" fill="none" xmlns="http://www.w3.org/2000/svg">
  <!-- Background shapes with improved contrast for dark mode -->
  <circle cx="300" cy="200" r="180" fill="#0EA5E9" fill-opacity="0.2"/>
  <circle cx="300" cy="200" r="120" fill="#0EA5E9" fill-opacity="0.25"/>
  
  <!-- Decorative elements with brighter colors -->
  <path d="M120 80C120 80 150 40 220 60C290 80 320 160 400 170C480 180 500 140 500 140" stroke="#38BDF8" stroke-width="4" stroke-linecap="round"/>
  <path d="M150 300C150 300 200 260 260 280C320 300 350 260 410 250C470 240 500 260 500 260" stroke="#38BDF8" stroke-width="4" stroke-linecap="round"/>
  
  <!-- Main laptop illustration with better dark mode colors -->
  <g>
    <!-- Laptop base -->
    <rect x="180" y="220" width="240" height="10" rx="2" fill="#64748B"/>
    <path d="M190 220H410V180C410 176.686 407.314 174 404 174H196C192.686 174 190 176.686 190 180V220Z" fill="#94A3B8"/>
    
    <!-- Screen -->
    <rect x="200" y="180" width="200" height="30" rx="2" fill="#1E293B"/>
    
    <!-- Blog content on screen - brighter colors -->
    <rect x="210" y="185" width="120" height="5" rx="1" fill="#7DD3FC"/>
    <rect x="210" y="195" width="100" height="3" rx="1" fill="white" fill-opacity="0.8"/>
    <rect x="210" y="202" width="80" height="3" rx="1" fill="white" fill-opacity="0.8"/>
    
    <!-- Code blocks - brighter syntax highlighting -->
    <rect x="340" y="185" width="50" height="20" rx="2" fill="#475569"/>
    <rect x="345" y="189" width="15" height="2" rx="1" fill="#BAE6FD"/>
    <rect x="345" y="194" width="40" height="2" rx="1" fill="#BAE6FD" fill-opacity="0.9"/>
    <rect x="345" y="199" width="30" height="2" rx="1" fill="#BAE6FD" fill-opacity="0.9"/>
  </g>
  
  <!-- Floating elements with better contrast -->
  <g>
    <!-- Code snippet -->
    <rect x="100" y="100" width="80" height="60" rx="4" fill="#334155"/>
    <rect x="110" y="110" width="40" height="3" rx="1" fill="#7DD3FC"/>
    <rect x="110" y="118" width="60" height="3" rx="1" fill="white" fill-opacity="0.9"/>
    <rect x="110" y="126" width="50" height="3" rx="1" fill="white" fill-opacity="0.9"/>
    <rect x="110" y="134" width="45" height="3" rx="1" fill="#7DD3FC"/>
    <rect x="110" y="142" width="55" height="3" rx="1" fill="white" fill-opacity="0.9"/>
  </g>
  
  <g>
    <!-- Document/Article - improved contrast -->
    <rect x="420" y="80" width="100" height="80" rx="4" fill="white" fill-opacity="0.2"/>
    <rect x="430" y="90" width="80" height="4" rx="1" fill="white"/>
    <rect x="430" y="100" width="70" height="3" rx="1" fill="white" fill-opacity="0.9"/>
    <rect x="430" y="108" width="80" height="3" rx="1" fill="white" fill-opacity="0.9"/>
    <rect x="430" y="116" width="60" height="3" rx="1" fill="white" fill-opacity="0.9"/>
    <rect x="430" y="126" width="50" height="15" rx="2" fill="#0EA5E9"/>
    <rect x="440" y="132" width="30" height="3" rx="1" fill="white"/>
  </g>
  
  <!-- Blog icon with brighter color -->
  <circle cx="120" cy="260" r="30" fill="#0EA5E9"/>
  <path d="M110 255H130M110 265H125M110 275H130" stroke="white" stroke-width="3" stroke-linecap="round"/>
  
  <!-- Connected dots pattern - brighter -->
  <circle cx="480" cy="320" r="4" fill="#7DD3FC"/>
  <circle cx="510" cy="330" r="4" fill="#7DD3FC"/>
  <circle cx="460" cy="350" r="4" fill="#7DD3FC"/>
  <path d="M480 320L510 330L460 350L480 320" stroke="#7DD3FC" stroke-opacity="0.6"/>
</svg>
